<?xml version="1.0" standalone="no"?>
<!DOCTYPE svg PUBLIC "-//W3C//DTD SVG 20010904//EN"
 "http://www.w3.org/TR/2001/REC-SVG-20010904/DTD/svg10.dtd">
<svg version="1.0" xmlns="http://www.w3.org/2000/svg"
 width="300.000000pt" height="300.000000pt" viewBox="0 0 300.000000 300.000000"
 preserveAspectRatio="xMidYMid meet">
<metadata>
Created by potrace 1.10, written by Peter Selinger 2001-2011
</metadata>
<g transform="translate(0.000000,300.000000) scale(0.100000,-0.100000)"
fill="#000000" stroke="none">
<path d="M2275 2945 c-42 -18 -55 -45 -65 -133 -5 -43 -17 -100 -27 -127 -15
-42 -25 -54 -62 -72 -106 -54 -131 -107 -131 -277 0 -83 2 -95 23 -113 12 -12
33 -23 47 -25 36 -4 40 -38 5 -38 -16 0 -38 -12 -56 -30 -24 -23 -39 -29 -79
-31 -70 -4 -81 -16 -22 -24 28 -4 55 -4 61 -1 5 4 13 1 17 -5 5 -8 -30 -10
-127 -6 -74 3 -152 2 -174 -2 l-40 -7 31 -8 c17 -4 35 -6 40 -5 33 6 274 -3
274 -10 0 -6 -72 -7 -177 -4 -132 5 -174 3 -169 -5 4 -7 16 -12 26 -12 10 0
21 -4 24 -9 9 -14 -31 -43 -59 -43 -14 0 -25 -4 -25 -9 0 -5 86 -9 190 -9 134
0 190 -3 190 -11 0 -8 -56 -10 -200 -7 -161 3 -195 2 -173 -8 36 -15 21 -20
-76 -28 -108 -9 -226 10 -275 45 -22 16 -61 36 -88 45 -39 13 -48 19 -42 33 4
9 10 36 14 61 8 57 33 113 64 151 38 45 41 66 16 115 -23 44 -44 58 -180 125
-109 53 -180 61 -252 30 -83 -36 -121 -97 -139 -228 -19 -134 -48 -180 -144
-222 -25 -11 -61 -33 -82 -49 -21 -16 -50 -32 -64 -36 -15 -3 -48 -20 -75 -38
-86 -59 -126 -177 -95 -285 7 -22 5 -44 -6 -75 -17 -48 -18 -143 -3 -183 5
-14 12 -53 15 -86 9 -90 44 -163 92 -187 21 -11 49 -17 63 -14 77 15 96 -2 67
-62 -22 -44 -65 -183 -73 -232 -3 -23 -1 -74 6 -113 10 -63 10 -74 -4 -89 -16
-18 -96 -192 -96 -209 0 -20 39 -44 141 -87 134 -56 191 -69 219 -49 45 32 12
66 -120 118 -52 21 -99 42 -104 46 -11 9 21 99 35 99 5 0 21 -13 36 -28 60
-61 305 -223 373 -247 47 -16 65 -8 130 61 31 33 79 80 108 105 l52 47 52 -27
c29 -14 78 -37 108 -51 30 -13 76 -41 102 -62 26 -21 49 -38 53 -38 14 0 -14
30 -72 79 -60 49 -81 62 -68 41 3 -6 -1 -7 -10 -3 -13 4 -14 8 -4 13 8 5 -13
21 -59 44 -40 20 -72 38 -72 40 0 9 135 -56 166 -79 16 -13 57 -48 89 -79 65
-61 93 -79 72 -45 -18 30 -186 155 -239 178 -25 10 -48 24 -52 29 -5 8 33 28
115 60 25 10 33 5 115 -69 48 -43 91 -79 96 -79 9 0 71 -120 65 -126 -2 -3
-22 12 -43 32 -61 56 -84 62 -34 9 l45 -48 -67 56 c-99 83 -116 86 -35 7 56
-55 78 -70 105 -72 47 -4 57 15 42 72 -9 34 -27 60 -74 105 -263 253 -254 247
-436 348 -36 20 -71 41 -79 46 -10 6 -17 39 -23 93 -4 46 -10 101 -13 123 -6
40 10 124 39 200 8 22 15 57 16 77 0 25 11 55 34 90 18 29 48 82 65 117 l32
63 52 -8 c54 -9 95 -9 234 -3 54 3 86 0 94 -8 9 -9 -2 -12 -46 -12 -32 0 -62
-4 -68 -10 -10 -10 263 -16 497 -11 48 1 67 -2 64 -10 -3 -9 -81 -12 -288 -12
-280 1 -340 -10 -132 -22 53 -4 101 -11 106 -16 6 -6 76 -10 164 -10 106 0
153 -3 150 -11 -2 -7 -59 -10 -173 -10 -98 1 -176 -3 -185 -9 -10 -7 45 -10
173 -10 126 0 187 -3 187 -11 0 -7 -79 -8 -264 -3 -184 4 -269 3 -282 -4 -19
-11 164 -16 440 -12 78 1 107 -2 104 -10 -2 -8 -68 -11 -232 -10 -125 0 -231
1 -235 2 -3 0 -26 0 -50 -1 -76 -2 -38 -12 63 -16 64 -3 105 -10 119 -20 17
-12 55 -15 179 -15 112 0 158 -3 158 -11 0 -9 -41 -10 -151 -7 -84 3 -146 2
-139 -2 10 -6 9 -9 -1 -13 -8 -3 55 -6 139 -6 99 -1 152 -5 152 -12 0 -7 -49
-8 -152 -4 -109 5 -149 4 -138 -4 9 -6 72 -11 153 -11 94 0 137 -3 137 -11 0
-8 -38 -10 -129 -7 -105 3 -126 1 -112 -9 10 -8 54 -12 129 -13 73 0 112 -4
112 -11 0 -7 -33 -9 -110 -4 -98 7 -110 6 -110 -9 0 -12 -11 -16 -47 -17 -27
-1 -59 -4 -73 -8 -25 -7 161 -21 282 -21 32 0 58 -4 58 -9 0 -4 -78 -6 -172
-3 -182 5 -220 -4 -74 -17 75 -7 93 -13 139 -44 38 -25 62 -34 83 -31 28 3 28
3 4 -5 l-25 -9 23 -7 22 -7 0 -277 c0 -169 4 -291 11 -316 14 -50 84 -119 153
-151 28 -13 94 -31 146 -40 217 -37 444 29 515 150 l26 45 0 733 c0 403 -1
781 -1 839 0 92 -3 108 -20 127 -26 28 -54 28 -105 1 -64 -34 -64 -39 1 -38
52 1 55 3 24 9 l-35 7 37 2 c20 0 44 4 52 7 15 6 16 -67 14 -843 l-3 -850 -27
-35 c-15 -20 -42 -45 -60 -56 -138 -84 -416 -94 -564 -20 -51 25 -111 86 -119
120 -8 33 -1 1146 7 1128 3 -8 9 -28 13 -43 3 -16 17 -40 31 -54 25 -25 34
-26 109 -10 33 7 84 49 101 83 30 62 26 165 -11 232 -15 29 -35 58 -44 65 -12
10 -13 9 -6 -2 6 -11 4 -13 -11 -7 -38 16 -90 26 -141 26 l-53 0 0 130 c0 141
1 146 14 142 13 -4 246 -22 371 -28 94 -4 108 -3 93 9 -10 8 -68 19 -138 26
-141 14 -150 17 -150 42 0 24 19 28 167 31 97 2 126 6 139 19 9 9 14 23 12 30
-2 11 -26 13 -118 8 l-115 -5 108 -2 c63 -1 107 -6 107 -12 0 -6 -58 -10 -155
-10 l-155 0 0 96 0 96 78 -5 c42 -2 114 -10 158 -17 75 -13 83 -12 99 4 32 31
40 14 40 -82 0 -51 4 -92 9 -92 5 0 3 -6 -3 -14 -6 -7 -9 -22 -5 -32 18 -55
28 -74 39 -74 18 0 85 60 85 76 0 10 13 14 43 14 33 0 49 6 66 23 19 21 22 35
22 127 0 60 -4 107 -10 113 -6 6 -11 21 -11 33 0 28 -62 88 -114 109 -22 9
-48 20 -56 24 -25 13 -63 121 -65 188 -4 98 -53 158 -113 139 -62 -20 -66
-114 -7 -180 19 -21 35 -44 35 -51 0 -7 3 -20 6 -29 5 -14 -7 -16 -99 -16 -58
0 -108 4 -111 9 -9 14 12 63 40 92 14 15 30 46 35 70 8 36 7 47 -8 67 -25 34
-53 42 -88 27z m55 -33 c21 -17 22 -21 10 -58 -15 -47 -29 -66 -45 -61 -17 7
-81 -223 -97 -348 -9 -76 -14 -98 -16 -70 -2 22 2 66 8 98 17 87 5 80 -24 -13
-30 -94 -32 -110 -11 -110 17 0 20 -25 5 -35 -12 -8 -30 36 -30 74 0 15 17 78
39 141 70 208 90 279 78 283 -24 8 25 117 53 117 4 0 18 -8 30 -18z m193 0
c26 -29 41 -80 28 -96 -12 -14 35 -162 103 -326 45 -108 55 -164 31 -174 -19
-7 -35 0 -35 16 0 6 9 8 20 5 11 -3 20 -3 20 -1 0 12 -61 191 -70 204 -13 21
-12 6 5 -68 17 -70 19 -352 4 -352 -5 0 -9 65 -9 144 0 165 -14 248 -68 414
-26 80 -42 114 -55 118 -20 6 -47 60 -47 93 0 19 23 40 46 41 6 0 18 -8 27
-18z m-21 -277 c44 -6 48 -9 58 -43 14 -52 14 -52 -22 -53 l-33 -2 35 -7 c28
-6 20 -8 -40 -9 -41 -1 -82 -6 -90 -12 -12 -9 -12 -10 3 -5 10 3 51 3 90 -2
l72 -7 -105 -6 -105 -5 100 -4 100 -4 -115 -6 -115 -6 128 -2 c88 -1 127 -6
127 -14 0 -8 -48 -10 -181 -5 -99 3 -183 7 -185 10 -10 10 38 100 68 128 l33
30 -33 -12 c-17 -6 -35 -15 -38 -20 -3 -5 -9 -9 -14 -9 -8 0 4 41 17 59 1 2
31 7 65 11 62 8 88 7 180 -5z m236 -89 c58 -39 64 -60 21 -75 -40 -14 -69 -14
-69 -1 0 6 15 11 33 12 27 1 26 2 -13 8 l-45 7 45 2 c48 3 46 6 -11 15 -28 5
-39 13 -52 41 -9 20 -17 38 -17 40 0 9 65 -20 108 -49z m-591 -21 c-22 -64
-23 -65 -52 -59 -16 4 -38 11 -48 16 -16 8 -16 11 -2 31 17 25 92 77 111 77 9
0 7 -17 -9 -65z m-1184 -66 c34 -11 92 -38 128 -60 37 -21 77 -39 88 -39 12 0
21 -3 21 -7 0 -14 -34 -43 -49 -42 -10 0 -12 2 -3 6 22 9 12 22 -20 25 -18 2
-32 8 -31 14 1 6 -33 28 -75 48 -60 28 -91 36 -132 36 -100 0 -146 -50 -169
-183 -6 -37 -16 -79 -21 -92 -9 -23 -7 -25 18 -25 15 1 38 7 52 15 34 19 40
18 40 -5 0 -12 7 -32 16 -45 10 -15 13 -33 9 -47 -12 -41 -58 -148 -62 -144
-2 2 8 32 22 66 14 34 25 66 23 71 -2 5 -16 -21 -32 -58 -57 -137 -68 -156
-78 -141 -8 10 -9 10 -6 -2 3 -8 20 -18 39 -23 l34 -10 -30 -10 c-62 -20 -95
-72 -95 -150 0 -46 -28 -86 -49 -72 -6 3 -11 -1 -11 -9 0 -9 -6 -13 -15 -10
-12 5 -12 10 2 32 l17 27 -29 -25 -29 -25 23 40 23 40 -32 -30 c-23 -22 -29
-25 -24 -11 5 14 4 17 -4 12 -21 -13 -13 11 15 46 l27 33 -32 -29 c-39 -36
-41 -27 -5 22 l27 37 -34 -30 c-33 -30 -33 -25 2 30 14 21 7 16 -22 -15 -45
-48 -44 -41 2 28 16 23 28 48 26 54 -2 6 -18 -11 -35 -38 -18 -27 -42 -60 -54
-74 l-21 -25 14 25 c8 14 24 42 37 63 35 57 17 44 -30 -23 -53 -76 -62 -71
-13 6 44 70 16 52 -32 -21 -43 -63 -45 -46 -3 21 25 39 27 45 9 29 -23 -21
-48 -64 -61 -105 l-7 -25 -1 27 c-1 15 4 39 10 55 8 22 8 25 -2 16 -6 -6 -15
-38 -18 -70 -6 -53 -8 -55 -15 -26 -4 17 -4 49 0 70 4 21 4 35 1 32 -4 -3 -11
-30 -16 -60 l-10 -54 2 67 c1 44 -1 64 -8 57 -5 -5 -10 -39 -10 -74 0 -59 3
-67 32 -96 l32 -32 27 33 c31 36 84 63 108 54 20 -8 46 -65 46 -101 0 -16 -7
-38 -15 -49 -15 -18 -16 -17 -10 16 l6 35 -16 -27 c-9 -16 -21 -28 -27 -28 -7
0 -5 7 4 18 9 9 19 28 23 42 6 22 4 21 -14 -7 -11 -17 -30 -37 -43 -44 -21
-11 -20 -9 5 16 37 38 34 50 -4 14 -17 -16 -35 -29 -40 -29 -5 0 -9 -10 -9
-21 0 -12 -13 -37 -30 -56 -31 -35 -38 -36 -20 -2 7 13 7 19 0 19 -5 0 -10 -6
-11 -12 -1 -7 -2 -27 -4 -44 -1 -16 -6 -40 -9 -52 -4 -12 -3 -22 2 -22 5 0 14
18 21 39 16 54 71 99 130 106 25 4 57 11 70 16 20 8 29 6 49 -14 l25 -25 -49
-36 c-27 -20 -91 -57 -141 -82 -51 -26 -93 -50 -93 -55 0 -12 46 -22 70 -16
11 3 20 1 20 -3 0 -5 -16 -12 -36 -16 -52 -10 -74 16 -85 97 -4 35 -15 91 -23
124 l-16 60 5 -60 c14 -188 48 -285 98 -285 11 0 57 18 103 40 64 31 95 54
142 105 32 36 62 65 66 65 18 0 0 -33 -49 -87 -41 -46 -77 -72 -144 -107 -100
-52 -137 -57 -169 -23 -28 30 -52 99 -52 152 0 23 -7 62 -15 85 -20 58 -19
116 5 169 19 41 19 46 4 97 -23 81 0 179 52 225 28 24 80 49 103 49 11 0 37
15 57 33 20 17 68 48 108 67 89 44 110 78 136 222 10 57 23 114 28 128 21 52
105 108 165 110 10 0 45 -9 80 -21z m1127 -20 c25 -9 25 -10 22 -110 -3 -98
-4 -101 -25 -95 -12 3 -31 6 -42 6 -19 0 -20 6 -18 102 1 57 2 107 3 112 0 4
8 5 18 1 9 -4 28 -11 42 -16z m720 -88 c0 -104 -1 -109 -22 -115 -35 -9 -68
-7 -68 4 0 6 12 11 28 11 l27 1 -30 7 -30 7 35 8 35 9 -35 7 c-22 5 -27 8 -13
9 33 2 38 21 6 22 l-28 2 28 4 c38 6 34 23 -5 25 l-33 1 33 4 c17 2 32 8 32
14 0 5 -15 10 -32 11 l-33 1 33 4 c40 5 42 23 2 23 -16 0 -30 4 -30 10 0 5 6
7 13 5 6 -3 23 4 37 15 46 36 50 29 50 -89z m-1808 23 c102 -52 157 -114 88
-100 -24 4 -42 -2 -86 -30 l-55 -35 -28 30 c-41 43 -73 41 -122 -9 -22 -22
-42 -40 -46 -40 -12 0 10 116 29 153 36 72 117 83 220 31z m1127 -135 c0 -65
-4 -98 -10 -92 -9 9 -2 193 7 193 2 0 4 -46 3 -101z m-909 61 c0 -26 -32 -70
-55 -76 -22 -5 -25 -12 -25 -49 0 -27 -6 -47 -16 -56 -12 -10 -15 -25 -11 -56
3 -31 1 -43 -10 -47 -8 -4 -19 -4 -23 -1 -5 3 -16 -8 -25 -25 -8 -16 -19 -30
-23 -30 -4 0 -12 -10 -17 -22 -18 -42 -52 -35 -106 24 -55 58 -68 91 -50 120
10 16 8 22 -13 39 -43 33 -29 119 19 119 23 0 47 -31 41 -54 -4 -15 1 -26 14
-34 16 -10 23 -7 49 18 16 17 36 30 45 30 9 0 23 14 31 30 13 25 19 29 35 20
21 -11 35 -30 23 -30 -5 0 -15 6 -23 13 -8 6 -4 -1 10 -17 l25 -30 -30 18 -30
19 25 -28 25 -28 -24 13 c-15 8 -21 8 -17 1 12 -19 42 -31 44 -18 1 7 4 23 6
37 2 14 5 28 5 33 1 4 9 7 18 7 18 0 53 28 53 42 0 4 -8 8 -17 8 -15 0 -16 2
-3 10 20 13 50 13 50 0z m977 -123 c-2 -23 -3 -1 -3 48 0 50 1 68 3 42 2 -26
2 -67 0 -90z m489 22 c3 -6 1 -16 -5 -22 -9 -9 -14 -8 -21 3 -9 15 -4 30 10
30 5 0 12 -5 16 -11z m-696 -199 c0 -6 -45 -10 -117 -9 -75 0 -111 4 -98 9 29
12 215 12 215 0z m-1144 -40 c-6 -34 -65 -125 -74 -116 -7 8 60 145 72 145 5
1 6 -13 2 -29z m1144 -2 c0 -8 -29 -9 -97 -5 -54 4 -124 7 -156 7 -32 0 -56 3
-54 8 8 12 307 3 307 -10z m-786 -30 c11 -6 37 -24 57 -39 22 -18 49 -29 67
-29 17 0 54 -5 82 -11 36 -8 69 -8 109 -1 46 8 73 7 122 -4 35 -8 88 -21 118
-28 50 -11 67 -26 70 -58 1 -5 -18 -9 -41 -10 -41 -1 -41 -1 -8 -5 19 -3 39
-8 44 -13 5 -6 -28 -7 -80 -3 -111 7 -106 -5 7 -17 l84 -9 -85 4 c-47 2 -96 7
-110 11 -21 6 -23 4 -12 -7 8 -8 42 -15 89 -17 48 -3 70 -7 62 -13 -16 -10
-199 -12 -224 -2 -15 5 -15 8 6 25 l24 20 -24 -6 c-13 -2 -47 -1 -75 4 -114
18 -227 32 -232 27 -3 -3 35 -10 83 -16 48 -7 111 -16 138 -21 45 -8 43 -8
-20 -4 -87 7 -255 33 -274 44 -11 6 -1 16 37 36 47 26 73 54 37 40 -8 -3 -34
4 -58 14 -25 11 -69 24 -98 30 l-54 9 57 -4 c31 -3 65 -8 75 -11 16 -5 16 -4
-1 7 -11 6 -51 15 -90 18 l-71 6 60 5 60 6 -53 8 c-59 10 -65 28 -11 36 37 6
99 -4 133 -22z m-293 -17 c20 -18 20 -19 -22 -40 -23 -12 -44 -19 -47 -16 -8
8 28 75 40 75 5 0 18 -8 29 -19z m1077 -21 c4 -11 -14 -12 -94 -7 -55 4 -130
8 -169 9 -38 1 0 5 85 8 183 7 173 7 178 -10z m-990 -36 c-26 -8 -50 -19 -53
-24 -8 -13 -4 -13 38 5 52 22 163 19 207 -5 42 -23 38 -24 -15 -5 -54 19 -126
19 -175 -1 -55 -22 -46 -27 15 -8 33 10 68 13 100 9 84 -10 83 -23 -1 -19 -54
2 -88 -2 -109 -12 -25 -12 -26 -13 -5 -8 14 3 39 8 55 10 24 3 21 1 -13 -12
-24 -9 -41 -18 -38 -21 3 -3 24 2 47 11 26 11 53 15 72 10 29 -6 28 -7 -43
-43 l-74 -37 -40 45 c-23 24 -54 52 -70 62 l-29 17 44 12 c24 6 55 15 69 20
14 5 34 8 45 9 11 0 -1 -7 -27 -15z m987 6 c4 -6 -29 -9 -92 -9 -73 1 -88 4
-58 9 62 11 143 11 150 0z m-129 -65 c7 -19 14 -57 14 -85 l0 -51 58 3 c55 3
57 4 60 32 5 45 -8 103 -19 85 -7 -12 -9 -12 -9 1 0 12 -2 12 -9 2 -6 -10 -10
-10 -20 2 -23 27 -36 8 -34 -47 l2 -52 -9 47 c-4 25 -11 56 -15 67 -6 20 -3
21 54 21 l60 0 6 -37 c8 -44 8 -44 6 -100 l-1 -43 -74 0 -74 0 -4 78 c-3 42
-8 85 -12 95 -5 9 -5 17 -2 17 4 0 14 -16 22 -35z m362 1 c39 -20 62 -67 62
-123 -1 -75 -52 -123 -133 -123 -56 0 -97 19 -121 55 -25 38 -14 41 25 7 44
-38 115 -50 158 -27 52 27 68 141 24 176 -14 12 -16 12 -9 -1 4 -8 -2 -4 -14
10 -15 17 -20 19 -16 8 7 -24 -2 -22 -25 5 -17 20 -18 20 -12 2 6 -20 6 -20
-16 -1 -22 20 -22 20 -15 0 7 -19 7 -19 -14 -1 -20 19 -21 18 -15 -5 l6 -23
-21 25 -21 25 6 -25 6 -25 -22 25 c-22 24 -22 24 -16 3 4 -13 2 -23 -3 -23 -9
0 -22 32 -22 55 0 16 170 1 208 -19z m-1317 -19 c109 -83 137 -166 77 -224
-39 -37 -126 -93 -145 -93 -26 0 -11 16 58 59 84 52 104 78 95 125 -8 44 -85
120 -123 122 -27 2 -26 -1 28 -55 31 -31 59 -64 62 -73 8 -22 -15 -47 -83 -93
l-55 -37 -32 38 c-30 34 -31 38 -15 50 16 11 16 14 -3 34 -11 12 -29 27 -40
32 -12 7 -7 -4 15 -27 25 -27 29 -34 13 -26 -12 6 -25 16 -28 21 -3 6 -11 10
-17 10 -6 0 -3 -9 7 -20 21 -23 9 -26 -20 -4 -38 29 -13 134 39 161 l31 16
-22 -25 c-23 -24 -31 -58 -14 -58 5 0 23 23 40 50 38 62 68 66 132 17z m20
-54 c18 -21 32 -43 27 -43 -2 0 -22 19 -43 41 -22 23 -31 37 -20 31 11 -6 27
-18 36 -29z m1246 18 c25 -1 53 -26 53 -47 0 -11 -4 -12 -19 -4 -11 5 -30 10
-42 10 -20 0 -17 -5 19 -31 23 -17 42 -37 42 -45 0 -39 -93 -38 -131 2 -25 27
-15 33 12 8 21 -19 99 -32 99 -16 0 18 -61 63 -74 54 -6 -5 -26 -12 -44 -15
-29 -6 -34 -3 -43 20 -15 41 -3 61 39 65 20 2 44 2 52 1 8 -1 25 -2 37 -2z
m-1067 -6 c0 -9 -80 -58 -86 -52 -3 3 14 17 38 31 46 28 48 29 48 21z m175
-21 c44 -9 96 -20 115 -25 32 -7 31 -8 -10 -3 -75 9 -204 35 -220 46 -11 7 -8
8 10 4 14 -3 61 -13 105 -22z m-136 -10 c-6 -8 -17 -14 -23 -14 -6 0 -23 -19
-38 -43 -24 -36 -28 -39 -28 -18 0 15 15 37 43 61 39 36 72 45 46 14z m176
-25 c33 -6 61 -12 64 -15 9 -9 -50 -3 -120 11 -78 17 -111 32 -44 21 22 -4 67
-11 100 -17z m-151 -19 c61 -23 151 -30 228 -18 66 10 91 9 172 -7 88 -16 100
-16 163 -2 37 9 76 19 87 23 14 5 17 3 14 -7 -8 -23 -98 -51 -164 -51 -33 0
-91 7 -127 16 -61 15 -73 16 -140 2 -76 -16 -174 -9 -220 15 -10 6 -23 7 -27
2 -5 -4 -38 -63 -75 -131 -37 -67 -71 -120 -76 -116 -5 3 -2 22 7 42 18 45
124 242 129 242 2 0 15 -4 29 -10z m825 -71 c3 -9 -5 -10 -29 -6 -18 4 -60 7
-94 7 -33 0 -56 4 -49 8 19 12 167 5 172 -9z m-1230 -64 c28 -31 51 -63 51
-70 0 -8 -21 -31 -46 -51 l-46 -38 -21 29 c-12 17 -42 52 -69 79 l-48 48 23
18 c12 10 33 27 47 38 31 25 42 20 109 -53z m1231 35 c0 -12 -216 -12 -245 0
-13 5 29 9 113 9 82 1 132 -3 132 -9z m237 -44 c-18 -18 -84 -37 -103 -29 -24
9 -9 28 18 25 14 -1 36 2 49 7 38 15 53 14 36 -3z m-1592 -73 c30 -37 55 -72
55 -77 0 -12 -129 124 -130 137 -1 21 25 0 75 -60z m1355 47 c0 -12 -204 -12
-270 -1 -32 6 0 9 113 10 99 1 157 -3 157 -9z m-1003 -62 c0 -29 2 -78 4 -108
2 -38 -2 -63 -13 -80 -19 -30 -38 -115 -38 -170 0 -29 -4 -40 -15 -40 -12 0
-15 12 -14 53 1 28 4 66 8 82 5 19 2 38 -7 53 -13 20 -13 22 5 22 22 0 43 18
43 37 0 7 -6 13 -14 13 -8 0 -17 4 -20 9 -4 5 4 7 16 4 29 -7 12 12 -17 21
-12 3 -9 4 8 2 15 -2 27 1 27 5 0 5 -9 9 -19 9 -11 0 -22 4 -25 9 -3 4 7 6 22
4 24 -3 23 -1 -8 12 l-35 15 35 -4 35 -5 -40 19 c-22 10 -33 19 -25 19 12 1
13 3 1 10 -10 7 -6 11 17 15 16 4 38 16 48 27 9 10 18 19 19 19 1 0 2 -24 2
-52z m-387 -26 c0 -18 -236 -160 -247 -148 -3 2 21 18 53 35 33 16 88 50 124
75 73 51 70 49 70 38z m271 -50 c9 -30 8 -44 -4 -72 -12 -27 -16 -30 -16 -14
-1 34 -38 37 -77 7 -19 -14 -34 -33 -34 -42 0 -33 25 -70 60 -88 53 -27 56
-28 41 -10 -11 14 -11 17 0 17 8 0 6 6 -7 16 -16 13 -16 15 -1 10 28 -9 20 0
-33 34 -27 18 -50 34 -50 36 0 7 95 -9 108 -19 6 -5 12 -31 12 -57 0 -55 -18
-70 -56 -45 -27 18 -38 19 -29 4 4 -5 0 -25 -9 -44 -14 -29 -20 -33 -44 -29
-15 3 -43 22 -62 43 -20 20 -50 46 -68 56 -38 23 -39 26 -11 51 12 10 41 45
66 77 24 31 52 57 62 57 9 0 23 6 29 12 9 9 15 10 20 2 7 -11 82 -37 82 -28 0
2 -15 11 -32 19 l-33 15 35 -6 c34 -5 35 -4 11 10 -23 13 -23 14 -5 19 10 2
22 5 26 6 4 0 12 -16 19 -37z m-261 23 c0 -9 -167 -115 -181 -115 -7 0 24 23
68 50 45 28 85 55 88 60 6 10 25 14 25 5z m1380 -25 c0 -8 -53 -9 -167 -4 -93
4 -170 8 -172 10 -2 2 73 4 167 4 113 0 172 -4 172 -10z m0 -170 c0 -13 -170
-13 -190 0 -10 7 18 10 88 10 61 0 102 -4 102 -10z m-1395 -45 c28 -13 45 -24
38 -24 -14 -1 -103 36 -103 44 0 9 13 5 65 -20z m-71 6 c3 -4 27 -16 53 -25
102 -37 105 -39 91 -47 -10 -7 -10 -9 0 -9 6 0 12 -5 12 -10 0 -7 -6 -7 -19 0
-11 5 -26 7 -34 4 -16 -6 -123 44 -114 52 3 3 28 -6 56 -20 58 -30 62 -31 55
-12 -3 8 -17 16 -32 20 -35 7 -113 55 -90 56 9 0 19 -4 22 -9z m-34 -11 c11
-6 17 -16 14 -23 -2 -7 12 -22 33 -35 l38 -22 -47 0 c-37 0 -48 4 -48 15 0 9
-7 29 -15 45 -16 32 -8 38 25 20z m1500 -20 c0 -6 -28 -10 -65 -10 -37 0 -65
4 -65 10 0 6 28 10 65 10 37 0 65 -4 65 -10z m-1118 -36 c11 -7 10 -34 -1 -34
-12 0 -81 40 -81 47 0 6 70 -6 82 -13z m-54 -60 l142 -7 2 -81 c1 -45 2 -89 2
-99 1 -12 39 -38 117 -80 98 -53 249 -151 249 -161 0 -2 -39 -16 -86 -30 -70
-22 -92 -25 -116 -17 -23 8 -29 8 -25 -2 18 -50 17 -52 -38 -95 -45 -35 -94
-87 -181 -191 -5 -6 -124 63 -238 139 -130 85 -184 138 -222 216 -26 53 -29
69 -29 154 0 77 4 103 21 135 12 22 25 58 29 80 4 22 9 44 12 49 3 5 52 6 112
3 58 -4 170 -10 249 -13z m-412 -438 c3 -8 -13 -50 -35 -94 l-41 -81 53 -24
c30 -13 91 -39 138 -57 87 -34 107 -46 97 -55 -9 -9 -113 24 -212 66 -49 22
-96 39 -104 39 -7 0 -12 4 -10 8 33 82 95 212 101 212 4 0 10 -6 13 -14z m817
-146 c29 -16 48 -30 42 -29 -16 0 -121 58 -107 59 7 0 36 -13 65 -30z"/>
<path d="M2279 2873 c-5 -16 -11 -32 -13 -38 -2 -5 7 -11 19 -11 18 -1 24 5
29 28 10 52 -17 68 -35 21z"/>
<path d="M2484 2892 c-12 -8 1 -72 14 -72 24 1 34 19 25 46 -10 30 -22 38 -39
26z"/>
<path d="M610 1946 c-14 -8 -44 -20 -68 -27 -23 -7 -41 -17 -39 -23 2 -6 32
-19 67 -28 62 -17 63 -17 93 4 18 13 25 24 18 26 -9 3 -9 7 0 18 16 20 9 18
-47 -12 -27 -14 -38 -17 -24 -7 13 10 36 29 50 42 l25 23 -27 -16 c-34 -20
-44 -20 -28 -1 15 18 12 18 -20 1z m10 -21 c0 -6 -32 -19 -70 -29 -14 -3 -7 3
15 14 41 20 55 24 55 15z"/>
<path d="M341 1518 c1 -13 5 -34 9 -48 7 -20 8 -16 9 23 1 26 -3 47 -9 47 -5
0 -10 -10 -9 -22z"/>
<path d="M377 1318 c-31 -17 -55 -33 -53 -35 5 -5 126 55 126 62 0 10 -16 4
-73 -27z"/>
<path d="M844 2196 c-8 -21 -1 -49 14 -54 7 -2 12 5 12 17 0 12 5 21 10 21 6
0 10 7 10 15 0 19 -39 20 -46 1z"/>
<path d="M1024 2155 c3 -10 0 -12 -12 -8 -16 6 -16 5 0 -13 21 -25 2 -47 -28
-31 -19 10 -19 10 0 -11 11 -12 14 -22 8 -22 -6 0 -14 5 -17 10 -3 6 -11 10
-17 10 -6 0 -3 -9 7 -20 22 -24 13 -26 -23 -3 l-27 17 25 -28 c21 -23 22 -26
5 -20 -18 7 -19 6 -5 -11 15 -17 14 -18 -20 -1 l-35 17 28 -25 c32 -29 24 -34
-13 -10 -14 9 -4 -5 22 -30 26 -25 52 -46 58 -46 6 0 16 11 22 25 6 14 15 25
20 25 5 0 16 16 24 35 8 19 20 34 27 32 7 -1 13 12 15 33 2 19 8 40 13 46 9
11 -17 28 -59 37 -17 4 -22 2 -18 -8z m5 -102 c-30 -52 -55 -77 -63 -65 -5 9
69 102 81 102 3 0 -5 -17 -18 -37z"/>
<path d="M1450 1797 c0 -4 30 -20 66 -37 60 -28 69 -29 110 -19 24 6 44 15 44
19 0 4 -37 12 -82 18 -46 5 -95 13 -110 17 -16 4 -28 5 -28 2z"/>
<path d="M1050 1755 c-59 -32 -46 -32 22 0 29 14 46 25 38 24 -8 0 -35 -11
-60 -24z"/>
<path d="M850 1717 c25 -26 51 -46 59 -47 21 0 -4 26 -58 62 l-46 30 45 -45z"/>
<path d="M830 1701 c51 -47 43 -56 -9 -11 -47 40 -54 28 -8 -14 32 -29 39 -32
54 -21 17 12 17 14 1 32 -9 10 -32 26 -50 36 -30 17 -29 14 12 -22z"/>
<path d="M760 1693 c0 -4 16 -21 35 -36 38 -31 49 -23 13 10 -30 26 -48 36
-48 26z"/>
<path d="M764 1651 c17 -17 34 -31 39 -31 14 0 -23 39 -48 52 -14 8 -12 2 9
-21z"/>
<path d="M698 1548 c28 -31 29 -45 0 -18 -32 30 -45 24 -17 -7 l24 -27 -27 17
c-39 24 -45 21 -17 -10 16 -19 18 -23 4 -12 -34 27 -49 34 -39 17 22 -36 80
-107 87 -108 12 0 77 51 77 61 0 13 -70 88 -94 101 -20 10 -20 10 2 -14z m42
-72 c0 -8 -5 -18 -10 -21 -17 -11 -40 3 -34 20 8 19 44 20 44 1z"/>
<path d="M656 972 c-4 -18 -5 -36 -2 -39 11 -12 17 5 14 39 l-3 33 -9 -33z"/>
<path d="M686 972 c-4 -18 -5 -36 -2 -39 11 -12 17 5 14 39 l-3 33 -9 -33z"/>
<path d="M718 977 c-12 -29 -10 -63 3 -50 6 6 9 23 7 39 -2 24 -4 26 -10 11z"/>
<path d="M850 954 c0 -21 4 -33 10 -29 6 3 10 19 10 36 0 16 -4 29 -10 29 -5
0 -10 -16 -10 -36z"/>
<path d="M452 903 c-6 -11 -16 -49 -22 -86 -18 -104 10 -200 82 -282 44 -50
361 -261 367 -244 5 15 120 141 169 184 30 27 33 33 22 55 -26 58 -180 147
-277 161 -35 5 -88 17 -118 27 -47 16 -53 17 -45 3 9 -17 73 -42 160 -61 88
-20 218 -95 234 -135 2 -7 -33 -52 -78 -101 -64 -67 -87 -86 -101 -80 -28 10
-236 151 -282 191 -58 50 -103 142 -103 213 0 30 5 72 12 93 11 37 13 39 52
39 23 0 50 -3 61 -6 27 -7 69 -92 55 -109 -12 -14 8 -23 102 -49 85 -24 89
-19 20 20 -66 38 -105 85 -117 142 -6 27 -11 32 -34 32 -16 0 -55 3 -88 6 -54
6 -62 4 -71 -13z"/>
<path d="M676 876 c8 -46 76 -103 197 -165 57 -29 133 -75 168 -102 35 -26 72
-48 82 -49 31 0 138 33 134 43 -1 5 -45 33 -97 63 -94 54 -145 73 -250 92
l-55 10 67 -1 c38 -1 63 2 58 7 -11 11 -116 36 -152 36 -16 0 -28 5 -28 10 0
12 74 13 117 1 l31 -9 -5 36 c-3 21 -8 40 -12 43 -3 4 -63 9 -133 12 l-127 5
5 -32z m121 -22 c2 -7 -4 -19 -13 -29 -16 -15 -18 -15 -37 3 -11 11 -17 25
-13 30 8 14 58 10 63 -4z m291 -189 c43 -20 72 -40 72 -50 0 -24 -37 -18 -78
12 -112 83 -110 94 6 38z"/>
<path d="M2291 2373 c8 -2 67 -7 130 -12 l114 -8 -129 -2 c-71 0 -127 -3 -124
-6 3 -3 61 -9 129 -14 l124 -8 -125 -2 c-151 -3 -136 -19 20 -21 85 -2 98 -4
70 -11 -19 -5 -74 -7 -122 -3 -61 4 -88 2 -88 -6 0 -7 38 -10 123 -8 l122 3 3
53 3 52 -133 -1 c-73 -1 -126 -3 -117 -6z"/>
<path d="M2410 2070 l-125 -6 125 -2 c157 -3 150 -20 -10 -25 l-115 -3 123 -2
c73 -1 122 -6 122 -12 0 -6 -48 -11 -122 -11 l-123 -2 105 -8 c155 -13 159
-16 20 -19 -106 -2 -117 -4 -70 -10 30 -5 87 -9 125 -11 54 -2 42 -4 -55 -9
l-125 -5 125 -11 125 -11 -117 -1 c-71 -1 -118 -6 -118 -12 0 -6 46 -10 117
-10 150 0 140 -18 -12 -23 l-110 -3 120 0 120 1 2 103 c2 56 2 101 0 100 -1
-1 -58 -5 -127 -8z"/>
<path d="M2662 2069 c6 -18 47 -23 89 -10 l34 9 -47 1 c-25 1 -54 4 -64 8 -12
4 -15 2 -12 -8z"/>
<path d="M2688 2033 c18 -2 45 -2 60 0 15 2 0 4 -33 4 -33 0 -45 -2 -27 -4z"/>
<path d="M2650 2000 c0 -12 77 -12 105 0 14 6 2 9 -42 9 -36 1 -63 -3 -63 -9z"/>
<path d="M2650 1970 c0 -6 27 -10 60 -10 33 0 60 4 60 10 0 6 -27 10 -60 10
-33 0 -60 -4 -60 -10z"/>
<path d="M2650 1940 c0 -5 24 -10 54 -10 30 0 58 5 61 10 4 6 -17 10 -54 10
-34 0 -61 -4 -61 -10z"/>
<path d="M2650 1910 c0 -6 27 -10 60 -10 33 0 60 4 60 10 0 6 -27 10 -60 10
-33 0 -60 -4 -60 -10z"/>
<path d="M2655 1880 c-4 -6 17 -10 57 -9 60 1 61 2 23 10 -55 11 -73 11 -80
-1z"/>
<path d="M2324 1848 c6 -4 55 -8 109 -8 58 0 97 -4 97 -10 0 -6 -43 -11 -107
-11 l-108 -2 103 -7 c57 -4 106 -10 109 -14 4 -3 -38 -7 -93 -8 l-99 -2 100
-5 c92 -6 100 -4 103 13 2 10 1 29 -2 41 -6 23 -8 24 -115 22 -60 -1 -104 -5
-97 -9z"/>
<path d="M2655 1850 c-4 -6 17 -10 54 -10 34 0 61 4 61 10 0 6 -24 10 -54 10
-30 0 -58 -4 -61 -10z"/>
<path d="M2653 1817 c-9 -14 27 -19 75 -10 l47 10 -58 4 c-33 2 -61 1 -64 -4z"/>
<path d="M2678 1783 c17 -2 47 -2 65 0 17 2 3 4 -33 4 -36 0 -50 -2 -32 -4z"/>
<path d="M2433 1750 c48 -4 90 -10 94 -13 3 -4 -30 -7 -75 -7 -113 0 -118 -19
-5 -22 l88 -2 -85 -6 c-93 -6 -81 -17 25 -23 49 -3 45 -4 -24 -5 -102 -2 -98
-15 7 -23 l77 -6 -82 -1 c-111 -3 -109 -22 2 -22 l85 0 0 70 0 70 -97 -1 -98
-2 88 -7z"/>
<path d="M2655 1751 c-3 -6 18 -7 52 -4 76 8 80 13 10 13 -31 0 -58 -4 -62 -9z"/>
<path d="M2650 1720 c0 -6 27 -10 60 -10 33 0 60 4 60 10 0 6 -27 10 -60 10
-33 0 -60 -4 -60 -10z"/>
<path d="M2666 1688 c14 -6 36 -6 65 0 l44 10 -65 0 c-51 1 -60 -2 -44 -10z"/>
<path d="M2665 1660 c3 -5 26 -10 50 -10 24 0 47 5 50 10 4 6 -15 10 -50 10
-35 0 -54 -4 -50 -10z"/>
<path d="M2650 1629 c0 -7 19 -9 56 -6 77 7 80 17 6 17 -38 0 -62 -4 -62 -11z"/>
<path d="M2395 1600 c17 -4 55 -9 85 -11 50 -2 47 -3 -30 -9 l-85 -7 90 1 c73
1 90 4 90 16 0 12 -17 15 -90 17 -60 1 -80 -2 -60 -7z"/>
<path d="M2650 1600 c0 -6 27 -10 60 -10 33 0 60 4 60 10 0 6 -27 10 -60 10
-33 0 -60 -4 -60 -10z"/>
<path d="M2678 1573 c17 -2 47 -2 65 0 17 2 3 4 -33 4 -36 0 -50 -2 -32 -4z"/>
<path d="M2403 1543 c26 -2 67 -2 90 0 23 2 2 3 -48 3 -49 0 -68 -1 -42 -3z"/>
<path d="M2688 1543 c18 -2 45 -2 60 0 15 2 0 4 -33 4 -33 0 -45 -2 -27 -4z"/>
<path d="M2405 1510 c72 -12 125 -12 125 0 0 6 -35 9 -87 9 -81 -2 -84 -2 -38
-9z"/>
<path d="M2650 1510 c0 -12 30 -12 85 -1 38 8 37 9 -22 10 -36 1 -63 -3 -63
-9z"/>
<path d="M2340 1480 c0 -6 40 -11 98 -12 l97 -2 -97 -5 c-53 -3 -100 -9 -104
-13 -4 -5 38 -8 94 -8 140 0 131 -19 -10 -23 l-113 -3 113 -2 c152 -3 145 -21
-10 -24 l-123 -3 128 -5 128 -5 -3 58 -3 57 -97 0 c-59 0 -98 -4 -98 -10z"/>
<path d="M2650 1480 c0 -5 24 -10 54 -10 30 0 58 5 61 10 4 6 -17 10 -54 10
-34 0 -61 -4 -61 -10z"/>
<path d="M2660 1450 c0 -5 25 -10 55 -10 30 0 55 5 55 10 0 6 -25 10 -55 10
-30 0 -55 -4 -55 -10z"/>
<path d="M2650 1420 c0 -6 27 -10 60 -10 33 0 60 4 60 10 0 6 -27 10 -60 10
-33 0 -60 -4 -60 -10z"/>
<path d="M2678 1383 c17 -2 47 -2 65 0 17 2 3 4 -33 4 -36 0 -50 -2 -32 -4z"/>
<path d="M2665 1360 c-4 -6 16 -10 51 -10 32 0 55 2 53 4 -11 9 -99 14 -104 6z"/>
<path d="M2395 1349 c155 -12 159 -17 17 -18 -160 -1 -155 -20 6 -22 l117 -2
-114 -8 c-62 -5 -116 -11 -119 -14 -3 -3 47 -5 110 -5 125 0 128 2 128 56 l0
24 -127 -1 -128 -2 110 -8z"/>
<path d="M2645 1320 c-4 -6 18 -10 59 -10 37 0 66 4 66 10 0 6 -26 10 -59 10
-33 0 -63 -4 -66 -10z"/>
<path d="M2650 1290 c0 -6 27 -10 60 -10 33 0 60 4 60 10 0 6 -27 10 -60 10
-33 0 -60 -4 -60 -10z"/>
<path d="M2305 1260 c4 -6 51 -10 116 -10 152 0 141 -19 -13 -23 l-123 -3 128
-2 c128 -2 128 -2 125 21 -3 21 -7 22 -121 25 -80 2 -116 -1 -112 -8z"/>
<path d="M2660 1260 c0 -5 25 -10 55 -10 30 0 55 5 55 10 0 6 -25 10 -55 10
-30 0 -55 -4 -55 -10z"/>
<path d="M2677 1223 c18 -2 50 -2 70 0 21 2 7 4 -32 4 -38 0 -55 -2 -38 -4z"/>
<path d="M2291 1196 c11 -9 239 -15 239 -6 0 6 -47 10 -122 10 -67 0 -119 -2
-117 -4z"/>
<path d="M2660 1190 c0 -5 22 -10 49 -10 28 0 53 5 56 10 4 6 -15 10 -49 10
-31 0 -56 -4 -56 -10z"/>
<path d="M2400 1159 c150 -12 152 -16 10 -19 -99 -2 -116 -4 -80 -11 25 -4 82
-8 128 -8 81 -1 83 0 80 22 -3 21 -7 22 -123 23 l-120 2 105 -9z"/>
<path d="M2650 1160 c0 -13 90 -13 110 0 11 7 -3 10 -47 10 -36 0 -63 -4 -63
-10z"/>
<path d="M2650 1130 c0 -6 27 -10 60 -10 33 0 60 4 60 10 0 6 -27 10 -60 10
-33 0 -60 -4 -60 -10z"/>
<path d="M2290 1102 c0 -5 54 -9 120 -11 77 -1 120 2 120 9 0 6 -44 10 -120
10 -66 0 -120 -4 -120 -8z"/>
<path d="M2660 1100 c-11 -7 3 -10 48 -10 35 0 62 4 62 10 0 13 -90 13 -110 0z"/>
<path d="M2290 1070 c0 -6 45 -10 122 -10 159 0 146 -18 -17 -23 l-120 -3 129
-2 c71 -1 126 -5 122 -9 -4 -4 -62 -10 -129 -14 l-122 -6 130 1 130 1 0 35 0
35 -122 3 c-80 2 -123 -1 -123 -8z"/>
<path d="M2652 1067 c-9 -10 1 -12 48 -7 77 7 88 20 18 20 -33 0 -60 -5 -66
-13z"/>
<path d="M2654 1038 c-3 -4 22 -8 55 -8 34 0 61 4 61 9 0 10 -110 10 -116 -1z"/>
<path d="M2667 1008 c-6 -4 15 -7 48 -7 64 1 65 5 2 11 -20 2 -43 0 -50 -4z"/>
<path d="M2403 970 c65 -5 121 -11 124 -14 4 -3 -52 -7 -123 -7 -108 -2 -119
-3 -69 -9 100 -13 193 -11 198 3 11 33 -4 37 -127 36 l-121 -2 118 -7z"/>
<path d="M2650 970 c0 -12 30 -12 85 -1 38 8 37 9 -22 10 -36 1 -63 -3 -63 -9z"/>
<path d="M2650 940 c0 -11 50 -11 95 0 24 6 17 8 -32 9 -36 0 -63 -3 -63 -9z"/>
<path d="M2300 910 c20 -13 230 -13 230 0 0 6 -47 10 -122 10 -83 0 -118 -3
-108 -10z"/>
<path d="M2660 910 c0 -5 25 -10 55 -10 30 0 55 5 55 10 0 6 -25 10 -55 10
-30 0 -55 -4 -55 -10z"/>
<path d="M2293 878 c-2 -5 48 -8 111 -8 66 0 117 -4 121 -10 4 -6 -39 -11
-122 -12 -111 -1 -120 -2 -63 -8 120 -14 187 -12 194 6 13 33 -7 39 -122 39
-63 0 -116 -3 -119 -7z"/>
<path d="M2690 880 c-45 -7 -44 -7 18 -8 36 -1 62 2 62 8 0 11 -11 11 -80 0z"/>
<path d="M2660 840 c0 -12 67 -12 95 0 14 6 4 9 -37 9 -33 1 -58 -3 -58 -9z"/>
<path d="M2310 810 c37 -12 220 -12 220 0 0 6 -47 10 -122 9 -77 -1 -114 -4
-98 -9z"/>
<path d="M2655 810 c-8 -12 71 -12 100 0 14 6 4 9 -37 9 -31 1 -60 -3 -63 -9z"/>
<path d="M2283 778 c-2 -5 52 -8 121 -8 69 0 126 3 126 8 0 4 -54 7 -121 7
-66 0 -123 -3 -126 -7z"/>
<path d="M2685 780 c-37 -7 -35 -7 23 -9 35 0 62 3 62 9 0 11 -24 11 -85 0z"/>
<path d="M2715 752 c-27 -2 -54 -8 -60 -14 -7 -7 7 -9 49 -4 55 6 76 12 65 19
-2 1 -26 1 -54 -1z"/>
<path d="M2282 745 c10 -10 248 -15 248 -5 0 6 -48 10 -127 10 -69 0 -124 -2
-121 -5z"/>
<path d="M2295 710 c46 -12 235 -12 235 0 0 6 -50 10 -132 9 -83 -1 -122 -4
-103 -9z"/>
<path d="M2680 710 c-21 -7 -17 -8 20 -9 25 0 52 4 60 9 19 12 -42 12 -80 0z"/>
<path d="M2305 679 c59 -12 228 -11 220 1 -4 6 -58 10 -133 9 -95 -1 -117 -3
-87 -10z"/>
<path d="M2665 680 c-4 -6 13 -10 44 -10 27 0 53 5 56 10 4 6 -13 10 -44 10
-27 0 -53 -4 -56 -10z"/>
<path d="M2275 650 c29 -12 255 -12 255 0 0 6 -52 10 -137 9 -87 0 -131 -4
-118 -9z"/>
<path d="M2693 653 c-24 -2 -43 -9 -43 -15 0 -13 100 -2 115 13 5 5 2 8 -10 7
-11 -1 -39 -3 -62 -5z"/>
<path d="M2385 620 l-130 -6 133 -2 c83 -1 132 2 132 8 0 6 -1 9 -2 8 -2 -1
-61 -5 -133 -8z"/>
<path d="M2703 623 c-24 -2 -43 -9 -43 -15 0 -7 14 -8 38 -4 20 3 45 6 55 6 9
0 17 5 17 10 0 6 -6 9 -12 8 -7 -1 -32 -3 -55 -5z"/>
<path d="M2262 589 c7 -5 69 -8 138 -8 69 0 121 2 115 4 -23 8 -265 11 -253 4z"/>
<path d="M2703 593 c-24 -2 -43 -8 -43 -12 0 -11 92 -1 105 10 5 6 3 8 -5 7
-8 -1 -34 -3 -57 -5z"/>
<path d="M2265 560 c29 -7 262 -13 254 -6 -2 2 -67 6 -144 9 -77 3 -126 1
-110 -3z"/>
<path d="M2688 563 c-21 -2 -38 -9 -38 -15 0 -12 94 -3 119 12 17 10 -6 11
-81 3z"/>
<path d="M2061 547 c3 -4 56 -18 117 -32 84 -19 139 -25 228 -25 65 0 114 3
111 7 -4 4 -53 6 -110 4 -94 -2 -174 9 -322 45 -16 4 -27 4 -24 1z"/>
<path d="M2700 533 c-19 -3 -39 -9 -45 -15 -12 -13 78 -3 103 12 19 11 12 11
-58 3z"/>
<path d="M2312 523 c37 -2 100 -2 140 0 40 1 10 3 -67 3 -77 0 -110 -1 -73 -3z"/>
<path d="M2061 516 c2 -2 42 -14 89 -26 96 -25 360 -41 360 -22 0 6 -46 10
-127 10 -94 0 -153 6 -220 21 -96 22 -109 24 -102 17z"/>
<path d="M2700 503 c-19 -3 -39 -9 -45 -15 -12 -13 78 -3 103 12 19 11 12 11
-58 3z"/>
<path d="M2070 481 c53 -31 440 -70 440 -45 0 5 -55 10 -123 11 -79 1 -157 9
-221 22 -110 23 -118 24 -96 12z"/>
<path d="M2693 468 c-24 -5 -43 -14 -43 -19 0 -6 8 -8 18 -5 9 3 36 10 60 16
75 19 46 27 -35 8z"/>
<path d="M2074 449 c33 -21 226 -48 331 -47 l100 1 -118 8 c-100 7 -207 22
-307 45 -23 5 -23 4 -6 -7z"/>
<path d="M2703 441 c-72 -19 -97 -37 -38 -27 59 10 105 26 105 37 0 5 -1 8 -2
8 -2 -1 -31 -9 -65 -18z"/>
<path d="M2075 422 c6 -6 44 -19 85 -27 90 -20 326 -33 317 -18 -4 6 -55 11
-115 11 -95 2 -175 13 -272 38 -18 5 -22 4 -15 -4z"/>
<path d="M2683 406 c-50 -11 -81 -26 -52 -26 19 0 120 27 127 34 7 8 -12 6
-75 -8z"/>
<path d="M2090 388 c0 -9 66 -27 144 -38 l61 -9 -65 4 c-36 2 -74 6 -85 10
-11 3 -6 -1 10 -9 56 -27 133 -46 217 -52 69 -6 102 -3 179 16 134 32 155 40
89 35 l-55 -5 62 14 c34 8 70 20 80 26 15 9 13 10 -12 4 -16 -4 -48 -8 -71 -9
-22 -2 -55 -10 -73 -19 -18 -10 -53 -20 -78 -23 -40 -5 -45 -3 -40 11 6 14 -5
16 -91 16 -53 0 -136 8 -184 18 -49 10 -88 15 -88 10z"/>
</g>
</svg>
